<?xml version="1.0" standalone="no"?>
<!DOCTYPE svg PUBLIC "-//W3C//DTD SVG 1.1//EN" "http://www.w3.org/Graphics/SVG/1.1/DTD/svg11.dtd">
<!--Generator: Xara Designer (www.xara.com), SVG filter version: 5.0.0.2-->
<svg stroke-width="0.501" stroke-linejoin="bevel" fill-rule="evenodd" xmlns:xlink="http://www.w3.org/1999/xlink" xmlns="http://www.w3.org/2000/svg" version="1.1" overflow="visible" width="595.277pt" height="841.891pt" viewBox="0 0 595.277 841.891">
 <defs>
  <marker id="DefaultArrow2" markerUnits="strokeWidth" viewBox="0 0 1 1" markerWidth="1" markerHeight="1" overflow="visible" orient="auto">
   <!-- REF_ARROW_STRAIGHT (-2) -->
   <g transform="scale(0.0092592592)">
    <!-- 1/108 -->
    <path d="M -9 54 L -9 -54 L 117 0 z"/>
   </g>
  </marker>
  <marker id="DefaultArrow3" markerUnits="strokeWidth" viewBox="0 0 1 1" markerWidth="1" markerHeight="1" overflow="visible" orient="auto">
   <!-- REF_ARROW_ANGLED -->
   <g transform="scale(0.0092592592)">
    <path d="M -27 54 L -9 0 L -27 -54 L 135 0 z"/>
   </g>
  </marker>
  <marker id="DefaultArrow4" markerUnits="strokeWidth" viewBox="0 0 1 1" markerWidth="1" markerHeight="1" overflow="visible" orient="auto">
   <!-- REF_ARROW_ROUNDED -->
   <g transform="scale(0.0092592592)">
    <path d="M -9,0 L -9,-45 C -9,-51.708 2.808,-56.580 9,-54 L 117,-9 C 120.916,-7.369 126.000,-4.242 126,0 C 126,4.242 120.916,7.369 117,9 L 9,54 C 2.808,56.580 -9,51.708 -9,45 z"/>
   </g>
  </marker>
  <marker id="DefaultArrow5" markerUnits="strokeWidth" viewBox="0 0 1 1" markerWidth="1" markerHeight="1" overflow="visible" orient="auto">
   <!-- REF_ARROW_SPOT -->
   <g transform="scale(0.0092592592)">
    <path d="M -54, 0 C -54,29.807 -29.807,54 0,54 C 29.807,54 54,29.807 54,0 C 54,-29.807 29.807,-54 0,-54 C -29.807,-54 -54,-29.807 -54,0 z"/>
   </g>
  </marker>
  <marker id="DefaultArrow6" markerUnits="strokeWidth" viewBox="0 0 1 1" markerWidth="1" markerHeight="1" overflow="visible" orient="auto">
   <!-- REF_ARROW_DIAMOND -->
   <g transform="scale(0.0092592592)">
    <path d="M -63,0 L 0,63 L 63,0 L 0,-63 z"/>
   </g>
  </marker>
  <marker id="DefaultArrow7" markerUnits="strokeWidth" viewBox="0 0 1 1" markerWidth="1" markerHeight="1" overflow="visible" orient="auto">
   <!-- REF_ARROW_FEATHER -->
   <g transform="scale(0.0092592592)">
    <path d="M 18,-54 L 108,-54 L 63,0 L 108,54 L 18, 54 L -36,0 z"/>
   </g>
  </marker>
  <marker id="DefaultArrow8" markerUnits="strokeWidth" viewBox="0 0 1 1" markerWidth="1" markerHeight="1" overflow="visible" orient="auto">
   <!-- REF_ARROW_FEATHER2 -->
   <g transform="scale(0.0092592592)">
    <path d="M -36,0 L 18,-54 L 54,-54 L 18,-18 L 27,-18 L 63,-54 L 99,-54 L 63,-18 L 72,-18 L 108,-54 L 144,-54 L 90,0 L 144,54 L 108,54 L 72,18 L 63,18 L 99,54 L 63,54 L 27,18 L 18,18 L 54,54 L 18,54 z"/>
   </g>
  </marker>
  <marker id="DefaultArrow9" markerUnits="strokeWidth" viewBox="0 0 1 1" markerWidth="1" markerHeight="1" overflow="visible" orient="auto">
   <!-- REF_ARROW_HOLLOWDIAMOND -->
   <g transform="scale(0.0092592592)">
    <path d="M 0,45 L -45,0 L 0, -45 L 45, 0 z M 0, 63 L-63, 0 L 0, -63 L 63, 0 z"/>
   </g>
  </marker>
  <filter id="StainedFilter">
   <feBlend mode="multiply" in2="BackgroundImage" in="SourceGraphic" result="blend"/>
   <feComposite in="blend" in2="SourceAlpha" operator="in" result="comp"/>
  </filter>
  <filter id="BleachFilter">
   <feBlend mode="screen" in2="BackgroundImage" in="SourceGraphic" result="blend"/>
   <feComposite in="blend" in2="SourceAlpha" operator="in" result="comp"/>
  </filter>
  <filter id="InvertTransparencyBitmapFilter">
   <feComponentTransfer>
    <feFuncR type="gamma" amplitude="1.055" exponent=".416666666" offset="-0.055"/>
    <feFuncG type="gamma" amplitude="1.055" exponent=".416666666" offset="-0.055"/>
    <feFuncB type="gamma" amplitude="1.055" exponent=".416666666" offset="-0.055"/>
   </feComponentTransfer>
   <feComponentTransfer>
    <feFuncR type="linear" slope="-1" intercept="1"/>
    <feFuncG type="linear" slope="-1" intercept="1"/>
    <feFuncB type="linear" slope="-1" intercept="1"/>
    <feFuncA type="linear" slope="1" intercept="0"/>
   </feComponentTransfer>
   <feComponentTransfer>
    <feFuncR type="gamma" amplitude="1" exponent="2.4" offset="0"/>
    <feFuncG type="gamma" amplitude="1" exponent="2.4" offset="0"/>
    <feFuncB type="gamma" amplitude="1" exponent="2.4" offset="0"/>
   </feComponentTransfer>
  </filter>
 </defs>
 <g id="Document" fill="none" stroke="black" font-family="Times New Roman" font-size="16" transform="scale(1 -1)">
  <g id="Spread" transform="translate(0 -841.891)">
   <g id="Layer 1">
    <g id="Group" stroke-linejoin="round" stroke-linecap="round" stroke-width="2" stroke-miterlimit="79.8403193612775">
     <path d="M 219.142,655.732 C 238.041,662.412 258.802,652.495 265.482,633.596 C 272.162,614.697 262.245,593.936 243.346,587.256 C 224.447,580.576 203.686,590.493 197.006,609.392 C 190.326,628.291 200.243,649.052 219.142,655.732 Z" stroke="#000000" fill="#ffffff" marker-start="none" marker-end="none"/>
     <path d="M 231.244,584.239 L 231.244,413.518" fill="none"/>
     <path d="M 231.244,540.295 L 168.444,596.294" fill="none"/>
     <path d="M 231.244,540.295 L 294.044,596.294" fill="none"/>
     <path d="M 231.244,413.512 L 270.844,325.095" fill="none"/>
     <path d="M 231.244,413.512 L 191.644,325.095" fill="none"/>
     <path d="M 214.487,636.29 C 218.679,636.928 222.602,634.043 223.24,629.851 C 223.878,625.659 220.993,621.736 216.801,621.098 C 212.609,620.46 208.686,623.345 208.048,627.537 C 207.41,631.729 210.295,635.652 214.487,636.29 Z" fill="#ffffff" stroke="#000000" marker-start="none" marker-end="none"/>
     <path d="M 245.296,636.29 C 249.488,636.928 253.411,634.043 254.049,629.851 C 254.687,625.659 251.802,621.736 247.61,621.098 C 243.418,620.46 239.495,623.345 238.857,627.537 C 238.219,631.729 241.104,635.652 245.296,636.29 Z" fill="#ffffff" stroke="#000000" marker-start="none" marker-end="none"/>
     <path d="M 216.044,603.494 C 226.164,596.815 236.324,597.353 246.444,604.294" fill="none"/>
     <path d="M 194,610.213 L 192.2,614.213 C 191.038,612.319 192.761,610.663 192.2,607.813 C 192.735,607.305 196.439,606.446 196.9,605.713 C 192.447,605.397 192.122,606.971 189.8,608.413 C 186.715,614.412 185.392,621.561 183.8,628.813 C 202.114,629.882 193.846,610.404 184.7,614.113 C 183.439,619.592 185.371,626.198 191.6,625.813 C 191.6,624.213 191.6,622.613 191.6,621.013 C 189.126,620.749 188.633,621.314 186.8,622.213 C 186.571,627.761 184.35,638.374 188.9,640.813 L 192.2,637.813 L 194.84,643.153 C 199.426,643.801 198.364,644.471 201.3,647.613 C 199.306,648.668 197.731,646.412 195.2,646.213 C 192.96,643.272 193.443,639.188 193.4,635.413 C 195.186,634.806 196.414,637.22 198.2,636.613 C 199.107,640.453 197.028,642.656 194.9,645.013 C 192.947,643.259 190.807,642.316 189.5,640.213 C 188.577,635.501 189.523,632.431 190.4,628.213 C 192.45,628.165 195.633,628.243 196.4,630.013 C 196.209,633.266 196.916,637.972 195.8,640.213 C 192.709,641.053 189.795,638.461 188.6,637.213 C 188.806,635.873 188.059,633.701 189.2,632.713 L 192.2,637.813 Z" stroke="#000000" fill="#ffffff" marker-start="none" marker-end="none"/>
     <path d="M 188.914,627.249 L 189.34,631.616 C 187.39,630.55 188.062,628.256 186.159,626.062 C 186.37,625.355 189.157,622.768 189.193,621.903 C 185.172,623.843 185.672,625.37 184.374,627.775 C 184.679,634.514 187.086,641.375 189.308,648.459 C 205.731,640.283 188.874,627.492 182.783,635.256 C 184.412,640.637 189.373,645.409 194.585,641.979 C 193.79,640.59 192.995,639.202 192.2,637.813 C 189.922,638.814 189.774,639.55 188.631,641.241 C 191.19,646.169 194.539,656.482 199.699,656.336 L 201.071,652.093 L 206.017,655.413 C 210.318,653.696 209.73,654.805 213.839,656.073 C 212.633,657.979 210.146,656.804 207.85,657.889 C 204.444,656.451 202.834,652.668 200.919,649.414 C 202.168,647.999 204.433,649.483 205.681,648.069 C 208.377,650.95 207.668,653.894 206.993,656.997 C 204.427,656.447 202.101,656.692 199.922,655.518 C 196.778,651.887 196.073,648.754 194.737,644.657 C 196.492,643.597 199.293,642.082 200.838,643.236 C 202.29,646.154 205.242,649.886 205.388,652.386 C 203.124,654.651 199.307,653.85 197.65,653.362 C 197.162,652.096 195.434,650.583 195.933,649.158 L 201.071,652.093 Z" stroke="#000000" fill="#ffffff" marker-start="none" marker-end="none"/>
     <path d="M 268.283,610.073 L 270.083,614.073 C 271.245,612.179 269.522,610.523 270.083,607.673 C 269.548,607.165 265.844,606.306 265.383,605.573 C 269.836,605.257 270.161,606.831 272.483,608.273 C 275.568,614.272 276.891,621.421 278.483,628.673 C 260.169,629.742 268.437,610.264 277.583,613.973 C 278.844,619.452 276.912,626.058 270.683,625.673 C 270.683,624.073 270.683,622.473 270.683,620.873 C 273.157,620.609 273.65,621.174 275.483,622.073 C 275.712,627.621 277.933,638.234 273.383,640.673 L 270.083,637.673 L 267.443,643.013 C 262.857,643.661 263.919,644.331 260.983,647.473 C 262.977,648.528 264.552,646.272 267.083,646.073 C 269.323,643.132 268.84,639.048 268.883,635.273 C 267.097,634.666 265.869,637.08 264.083,636.473 C 263.176,640.313 265.255,642.516 267.383,644.873 C 269.336,643.119 271.476,642.176 272.783,640.073 C 273.706,635.361 272.76,632.291 271.883,628.073 C 269.833,628.025 266.65,628.103 265.883,629.873 C 266.074,633.126 265.367,637.832 266.483,640.073 C 269.574,640.913 272.488,638.321 273.683,637.073 C 273.477,635.733 274.224,633.561 273.083,632.573 L 270.083,637.673 Z" stroke="#000000" fill="#ffffff" marker-start="none" marker-end="none"/>
     <path d="M 273.369,627.109 L 272.943,631.476 C 274.893,630.41 274.221,628.116 276.124,625.922 C 275.913,625.215 273.126,622.628 273.09,621.763 C 277.111,623.703 276.611,625.23 277.909,627.635 C 277.604,634.374 275.197,641.235 272.975,648.319 C 256.552,640.143 273.409,627.352 279.5,635.116 C 277.871,640.497 272.91,645.269 267.698,641.839 C 268.493,640.45 269.288,639.062 270.083,637.673 C 272.361,638.674 272.509,639.41 273.652,641.101 C 271.093,646.029 267.744,656.342 262.584,656.196 L 261.212,651.953 L 256.266,655.273 C 251.965,653.556 252.553,654.665 248.444,655.933 C 249.65,657.839 252.137,656.664 254.433,657.749 C 257.839,656.311 259.449,652.528 261.364,649.274 C 260.115,647.859 257.85,649.343 256.602,647.929 C 253.906,650.81 254.615,653.754 255.29,656.857 C 257.856,656.307 260.182,656.552 262.361,655.378 C 265.505,651.747 266.21,648.614 267.546,644.517 C 265.791,643.457 262.99,641.942 261.445,643.096 C 259.993,646.014 257.041,649.746 256.895,652.246 C 259.159,654.511 262.976,653.71 264.633,653.222 C 265.121,651.956 266.849,650.443 266.35,649.018 L 261.212,651.953 Z" stroke="#000000" fill="#ffffff" marker-start="none" marker-end="none"/>
     <path d="M 249.91,655.939 L 246.347,658.497 C 248.434,659.26 249.715,657.242 252.619,657.226 C 253.011,656.601 253.117,652.801 253.745,652.203 C 254.938,656.505 253.46,657.136 252.507,659.698 C 247.24,663.912 240.495,666.627 233.704,669.627 C 229.021,651.889 249.753,656.127 247.933,665.827 C 242.813,668.151 235.955,667.568 235.096,661.387 C 236.665,661.07 238.232,660.752 239.801,660.434 C 240.551,662.807 240.094,663.402 239.577,665.377 C 234.185,666.702 224.224,670.985 220.931,667.01 L 223.216,663.18 L 217.458,661.653 C 215.913,657.286 215.467,658.46 211.805,656.206 C 211.166,658.369 213.69,659.466 214.388,661.907 C 217.715,663.519 221.621,662.235 225.33,661.528 C 225.571,659.657 222.96,658.932 223.201,657.061 C 219.258,656.935 217.511,659.409 215.624,661.963 C 217.73,663.529 219.079,665.44 221.399,666.303 C 226.201,666.272 229.022,664.736 232.982,663.039 C 232.623,661.021 231.914,657.916 230.027,657.516 C 226.877,658.349 222.124,658.589 220.149,660.128 C 219.939,663.324 223.058,665.666 224.519,666.59 C 225.79,666.122 228.068,666.423 228.81,665.109 L 223.216,663.18 Z" stroke="#000000" fill="#ffffff" marker-start="none" marker-end="none"/>
     <path d="M 234.221,664.305 L 229.858,664.754 C 231.289,666.454 233.404,665.34 235.932,666.769 C 236.583,666.422 238.565,663.177 239.406,662.97 C 238.303,667.296 236.707,667.108 234.607,668.858 C 227.942,669.897 220.74,668.899 213.356,668.128 C 218.11,650.409 233.991,664.392 227.591,671.903 C 221.994,671.374 216.332,667.458 218.659,661.67 C 220.179,662.172 221.697,662.676 223.216,663.18 C 222.687,665.611 221.995,665.903 220.564,667.358 C 215.227,665.828 204.454,664.593 203.573,659.506 L 207.459,657.32 L 203.224,653.131 C 204.054,648.575 203.083,649.371 201.025,645.595 C 199.396,647.156 201.041,649.36 200.433,651.825 C 202.519,654.878 206.546,655.706 210.115,656.937 C 211.254,655.432 209.35,653.506 210.489,652.003 C 207.13,649.932 204.385,651.212 201.477,652.489 C 202.526,654.894 202.747,657.222 204.33,659.126 C 208.513,661.486 211.724,661.556 216.004,662.052 C 216.695,660.122 217.624,657.075 216.186,655.79 C 213.039,654.946 208.795,652.794 206.315,653.146 C 204.544,655.815 206.088,659.397 206.895,660.924 C 208.232,661.151 210.058,662.545 211.355,661.773 L 207.459,657.32 Z" stroke="#000000" fill="#ffffff" marker-start="none" marker-end="none"/>
     <path d="M 195.017,619.531 L 193.217,623.531 C 192.055,621.637 193.778,619.981 193.217,617.131 C 193.752,616.623 197.456,615.764 197.917,615.031 C 193.464,614.715 193.139,616.289 190.817,617.731 C 187.732,623.73 186.409,630.879 184.817,638.131 C 203.131,639.2 194.863,619.722 185.717,623.431 C 184.456,628.91 186.388,635.516 192.617,635.131 C 192.617,633.531 192.617,631.931 192.617,630.331 C 190.143,630.067 189.65,630.632 187.817,631.531 C 187.588,637.079 185.367,647.692 189.917,650.131 L 193.217,647.131 L 195.857,652.471 C 200.443,653.119 199.381,653.789 202.317,656.931 C 200.323,657.986 198.748,655.73 196.217,655.531 C 193.977,652.59 194.46,648.506 194.417,644.731 C 196.203,644.124 197.431,646.538 199.217,645.931 C 200.124,649.771 198.045,651.974 195.917,654.331 C 193.964,652.577 191.824,651.634 190.517,649.531 C 189.594,644.819 190.54,641.749 191.417,637.531 C 193.467,637.483 196.65,637.561 197.417,639.331 C 197.226,642.584 197.933,647.29 196.817,649.531 C 193.726,650.371 190.812,647.779 189.617,646.531 C 189.823,645.191 189.076,643.019 190.217,642.031 L 193.217,647.131 Z" stroke="#000000" fill="#ffffff" marker-start="none" marker-end="none"/>
     <path d="M 189.931,636.567 L 190.357,640.934 C 188.407,639.868 189.079,637.574 187.176,635.38 C 187.387,634.673 190.174,632.086 190.21,631.221 C 186.189,633.161 186.689,634.688 185.391,637.093 C 185.696,643.832 188.103,650.693 190.325,657.777 C 206.748,649.601 189.891,636.81 183.8,644.574 C 185.429,649.955 190.39,654.727 195.602,651.297 C 194.807,649.908 194.012,648.52 193.217,647.131 C 190.939,648.132 190.791,648.868 189.648,650.559 C 192.207,655.487 195.556,665.8 200.716,665.654 L 202.088,661.411 L 207.034,664.731 C 211.335,663.014 210.747,664.123 214.856,665.391 C 213.65,667.297 211.163,666.122 208.867,667.207 C 205.461,665.769 203.851,661.986 201.936,658.732 C 203.185,657.317 205.45,658.801 206.698,657.387 C 209.394,660.268 208.685,663.212 208.01,666.315 C 205.444,665.765 203.118,666.01 200.939,664.836 C 197.795,661.205 197.09,658.072 195.754,653.975 C 197.509,652.915 200.31,651.4 201.855,652.554 C 203.307,655.472 206.259,659.204 206.405,661.704 C 204.141,663.969 200.324,663.168 198.667,662.68 C 198.179,661.414 196.451,659.901 196.95,658.476 L 202.088,661.411 Z" stroke="#000000" fill="#ffffff" marker-start="none" marker-end="none"/>
     <path d="M 269.3,619.391 L 271.1,623.391 C 272.262,621.497 270.539,619.841 271.1,616.991 C 270.565,616.483 266.861,615.624 266.4,614.891 C 270.853,614.575 271.178,616.149 273.5,617.591 C 276.585,623.59 277.908,630.739 279.5,637.991 C 261.186,639.06 269.454,619.582 278.6,623.291 C 279.861,628.77 277.929,635.376 271.7,634.991 C 271.7,633.391 271.7,631.791 271.7,630.191 C 274.174,629.927 274.667,630.492 276.5,631.391 C 276.729,636.939 278.95,647.552 274.4,649.991 L 271.1,646.991 L 268.46,652.331 C 263.874,652.979 264.936,653.649 262,656.791 C 263.994,657.846 265.569,655.59 268.1,655.391 C 270.34,652.45 269.857,648.366 269.9,644.591 C 268.114,643.984 266.886,646.398 265.1,645.791 C 264.193,649.631 266.272,651.834 268.4,654.191 C 270.353,652.437 272.493,651.494 273.8,649.391 C 274.723,644.679 273.777,641.609 272.9,637.391 C 270.85,637.343 267.667,637.421 266.9,639.191 C 267.091,642.444 266.384,647.15 267.5,649.391 C 270.591,650.231 273.505,647.639 274.7,646.391 C 274.494,645.051 275.241,642.879 274.1,641.891 L 271.1,646.991 Z" stroke="#000000" fill="#ffffff" marker-start="none" marker-end="none"/>
     <path d="M 274.386,636.427 L 273.96,640.794 C 275.91,639.728 275.238,637.434 277.141,635.24 C 276.93,634.533 274.143,631.946 274.107,631.081 C 278.128,633.021 277.628,634.548 278.926,636.953 C 278.621,643.692 276.214,650.553 273.992,657.637 C 257.569,649.461 274.426,636.67 280.517,644.434 C 278.888,649.815 273.927,654.587 268.715,651.157 C 269.51,649.768 270.305,648.38 271.1,646.991 C 273.378,647.992 273.526,648.728 274.669,650.419 C 272.11,655.347 268.761,665.66 263.601,665.514 L 262.229,661.271 L 257.283,664.591 C 252.982,662.874 253.57,663.983 249.461,665.251 C 250.667,667.157 253.154,665.982 255.45,667.067 C 258.856,665.629 260.466,661.846 262.381,658.592 C 261.132,657.177 258.867,658.661 257.619,657.247 C 254.923,660.128 255.632,663.072 256.307,666.175 C 258.873,665.625 261.199,665.87 263.378,664.696 C 266.522,661.065 267.227,657.932 268.563,653.835 C 266.808,652.775 264.007,651.26 262.462,652.414 C 261.01,655.332 258.058,659.064 257.912,661.564 C 260.176,663.829 263.993,663.028 265.65,662.54 C 266.138,661.274 267.866,659.761 267.367,658.336 L 262.229,661.271 Z" stroke="#000000" fill="#ffffff" marker-start="none" marker-end="none"/>
     <path d="M 250.927,665.257 L 247.364,667.815 C 249.451,668.578 250.732,666.56 253.636,666.544 C 254.028,665.919 254.134,662.119 254.762,661.521 C 255.955,665.823 254.477,666.454 253.524,669.016 C 248.257,673.23 241.512,675.945 234.721,678.945 C 230.038,661.207 250.77,665.445 248.95,675.145 C 243.83,677.469 236.972,676.886 236.113,670.705 C 237.682,670.388 239.249,670.07 240.818,669.752 C 241.568,672.125 241.111,672.72 240.594,674.695 C 235.202,676.02 225.241,680.303 221.948,676.328 L 224.233,672.498 L 218.475,670.971 C 216.93,666.604 216.484,667.778 212.822,665.524 C 212.183,667.687 214.707,668.784 215.405,671.225 C 218.732,672.837 222.638,671.553 226.347,670.846 C 226.588,668.975 223.977,668.25 224.218,666.379 C 220.275,666.253 218.528,668.727 216.641,671.281 C 218.747,672.847 220.096,674.758 222.416,675.621 C 227.218,675.59 230.039,674.054 233.999,672.357 C 233.64,670.339 232.931,667.234 231.044,666.834 C 227.894,667.667 223.141,667.907 221.166,669.446 C 220.956,672.642 224.075,674.984 225.536,675.908 C 226.807,675.44 229.085,675.741 229.827,674.427 L 224.233,672.498 Z" stroke="#000000" fill="#ffffff" marker-start="none" marker-end="none"/>
     <path d="M 235.238,673.623 L 230.875,674.072 C 232.306,675.772 234.421,674.658 236.949,676.087 C 237.6,675.74 239.582,672.495 240.423,672.288 C 239.32,676.614 237.724,676.426 235.624,678.176 C 228.959,679.215 221.757,678.217 214.373,677.446 C 219.127,659.727 235.008,673.71 228.608,681.221 C 223.011,680.692 217.349,676.776 219.676,670.988 C 221.196,671.49 222.714,671.994 224.233,672.498 C 223.704,674.929 223.012,675.221 221.581,676.676 C 216.244,675.146 205.471,673.911 204.59,668.824 L 208.476,666.638 L 204.241,662.449 C 205.071,657.893 204.1,658.689 202.042,654.913 C 200.413,656.474 202.058,658.678 201.45,661.143 C 203.536,664.196 207.563,665.024 211.132,666.255 C 212.271,664.75 210.367,662.824 211.506,661.321 C 208.147,659.25 205.402,660.53 202.494,661.807 C 203.543,664.212 203.764,666.54 205.347,668.444 C 209.53,670.804 212.741,670.874 217.021,671.37 C 217.712,669.44 218.641,666.393 217.203,665.108 C 214.056,664.264 209.812,662.112 207.332,662.464 C 205.561,665.133 207.105,668.715 207.912,670.242 C 209.249,670.469 211.075,671.863 212.372,671.091 L 208.476,666.638 Z" stroke="#000000" fill="#ffffff" marker-start="none" marker-end="none"/>
     <path d="M 202.861,619.531 L 201.061,623.531 C 199.899,621.637 201.622,619.981 201.061,617.131 C 201.596,616.623 205.3,615.764 205.761,615.031 C 201.308,614.715 200.983,616.289 198.661,617.731 C 195.576,623.73 194.253,630.879 192.661,638.131 C 210.975,639.2 202.707,619.722 193.561,623.431 C 192.3,628.91 194.232,635.516 200.461,635.131 C 200.461,633.531 200.461,631.931 200.461,630.331 C 197.987,630.067 197.494,630.632 195.661,631.531 C 195.432,637.079 193.211,647.692 197.761,650.131 L 201.061,647.131 L 203.701,652.471 C 208.287,653.119 207.225,653.789 210.161,656.931 C 208.167,657.986 206.592,655.73 204.061,655.531 C 201.821,652.59 202.304,648.506 202.261,644.731 C 204.047,644.124 205.275,646.538 207.061,645.931 C 207.968,649.771 205.889,651.974 203.761,654.331 C 201.808,652.577 199.668,651.634 198.361,649.531 C 197.438,644.819 198.384,641.749 199.261,637.531 C 201.311,637.483 204.494,637.561 205.261,639.331 C 205.07,642.584 205.777,647.29 204.661,649.531 C 201.57,650.371 198.656,647.779 197.461,646.531 C 197.667,645.191 196.92,643.019 198.061,642.031 L 201.061,647.131 Z" stroke="#000000" fill="#ffffff" marker-start="none" marker-end="none"/>
     <path d="M 197.775,636.567 L 198.201,640.934 C 196.251,639.868 196.923,637.574 195.02,635.38 C 195.231,634.673 198.018,632.086 198.054,631.221 C 194.033,633.161 194.533,634.688 193.235,637.093 C 193.54,643.832 195.947,650.693 198.169,657.777 C 214.592,649.601 197.735,636.81 191.644,644.574 C 193.273,649.955 198.234,654.727 203.446,651.297 C 202.651,649.908 201.856,648.52 201.061,647.131 C 198.783,648.132 198.635,648.868 197.492,650.559 C 200.051,655.487 203.4,665.8 208.56,665.654 L 209.932,661.411 L 214.878,664.731 C 219.179,663.014 218.591,664.123 222.7,665.391 C 221.494,667.297 219.007,666.122 216.711,667.207 C 213.305,665.769 211.695,661.986 209.78,658.732 C 211.029,657.317 213.294,658.801 214.542,657.387 C 217.238,660.268 216.529,663.212 215.854,666.315 C 213.288,665.765 210.962,666.01 208.783,664.836 C 205.639,661.205 204.934,658.072 203.598,653.975 C 205.353,652.915 208.154,651.4 209.699,652.554 C 211.151,655.472 214.103,659.204 214.249,661.704 C 211.985,663.969 208.168,663.168 206.511,662.68 C 206.023,661.414 204.295,659.901 204.794,658.476 L 209.932,661.411 Z" stroke="#000000" fill="#ffffff" marker-start="none" marker-end="none"/>
     <path d="M 277.144,619.391 L 278.944,623.391 C 280.106,621.497 278.383,619.841 278.944,616.991 C 278.409,616.483 274.705,615.624 274.244,614.891 C 278.697,614.575 279.022,616.149 281.344,617.591 C 284.429,623.59 285.752,630.739 287.344,637.991 C 269.03,639.06 277.298,619.582 286.444,623.291 C 287.705,628.77 285.773,635.376 279.544,634.991 C 279.544,633.391 279.544,631.791 279.544,630.191 C 282.018,629.927 282.511,630.492 284.344,631.391 C 284.573,636.939 286.794,647.552 282.244,649.991 L 278.944,646.991 L 276.304,652.331 C 271.718,652.979 272.78,653.649 269.844,656.791 C 271.838,657.846 273.413,655.59 275.944,655.391 C 278.184,652.45 277.701,648.366 277.744,644.591 C 275.958,643.984 274.73,646.398 272.944,645.791 C 272.037,649.631 274.116,651.834 276.244,654.191 C 278.197,652.437 280.337,651.494 281.644,649.391 C 282.567,644.679 281.621,641.609 280.744,637.391 C 278.694,637.343 275.511,637.421 274.744,639.191 C 274.935,642.444 274.228,647.15 275.344,649.391 C 278.435,650.231 281.349,647.639 282.544,646.391 C 282.338,645.051 283.085,642.879 281.944,641.891 L 278.944,646.991 Z" stroke="#000000" fill="#ffffff" marker-start="none" marker-end="none"/>
     <path d="M 282.23,636.427 L 281.804,640.794 C 283.754,639.728 283.082,637.434 284.985,635.24 C 284.774,634.533 281.987,631.946 281.951,631.081 C 285.972,633.021 285.472,634.548 286.77,636.953 C 286.465,643.692 284.058,650.553 281.836,657.637 C 265.413,649.461 282.27,636.67 288.361,644.434 C 286.732,649.815 281.771,654.587 276.559,651.157 C 277.354,649.768 278.149,648.38 278.944,646.991 C 281.222,647.992 281.37,648.728 282.513,650.419 C 279.954,655.347 276.605,665.66 271.445,665.514 L 270.073,661.271 L 265.127,664.591 C 260.826,662.874 261.414,663.983 257.305,665.251 C 258.511,667.157 260.998,665.982 263.294,667.067 C 266.7,665.629 268.31,661.846 270.225,658.592 C 268.976,657.177 266.711,658.661 265.463,657.247 C 262.767,660.128 263.476,663.072 264.151,666.175 C 266.717,665.625 269.043,665.87 271.222,664.696 C 274.366,661.065 275.071,657.932 276.407,653.835 C 274.652,652.775 271.851,651.26 270.306,652.414 C 268.854,655.332 265.902,659.064 265.756,661.564 C 268.02,663.829 271.837,663.028 273.494,662.54 C 273.982,661.274 275.71,659.761 275.211,658.336 L 270.073,661.271 Z" stroke="#000000" fill="#ffffff" marker-start="none" marker-end="none"/>
     <path d="M 258.771,665.257 L 255.208,667.815 C 257.295,668.578 258.576,666.56 261.48,666.544 C 261.872,665.919 261.978,662.119 262.606,661.521 C 263.799,665.823 262.321,666.454 261.368,669.016 C 256.101,673.23 249.356,675.945 242.565,678.945 C 237.882,661.207 258.614,665.445 256.794,675.145 C 251.674,677.469 244.816,676.886 243.957,670.705 C 245.526,670.388 247.093,670.07 248.662,669.752 C 249.412,672.125 248.955,672.72 248.438,674.695 C 243.046,676.02 233.085,680.303 229.792,676.328 L 232.077,672.498 L 226.319,670.971 C 224.774,666.604 224.328,667.778 220.666,665.524 C 220.027,667.687 222.551,668.784 223.249,671.225 C 226.576,672.837 230.482,671.553 234.191,670.846 C 234.432,668.975 231.821,668.25 232.062,666.379 C 228.119,666.253 226.372,668.727 224.485,671.281 C 226.591,672.847 227.94,674.758 230.26,675.621 C 235.062,675.59 237.883,674.054 241.843,672.357 C 241.484,670.339 240.775,667.234 238.888,666.834 C 235.738,667.667 230.985,667.907 229.01,669.446 C 228.8,672.642 231.919,674.984 233.38,675.908 C 234.651,675.44 236.929,675.741 237.671,674.427 L 232.077,672.498 Z" stroke="#000000" fill="#ffffff" marker-start="none" marker-end="none"/>
     <path d="M 243.082,673.623 L 238.719,674.072 C 240.15,675.772 242.265,674.658 244.793,676.087 C 245.444,675.74 247.426,672.495 248.267,672.288 C 247.164,676.614 245.568,676.426 243.468,678.176 C 236.803,679.215 229.601,678.217 222.217,677.446 C 226.971,659.727 242.852,673.71 236.452,681.221 C 230.855,680.692 225.193,676.776 227.52,670.988 C 229.04,671.49 230.558,671.994 232.077,672.498 C 231.548,674.929 230.856,675.221 229.425,676.676 C 224.088,675.146 213.315,673.911 212.434,668.824 L 216.32,666.638 L 212.085,662.449 C 212.915,657.893 211.944,658.689 209.886,654.913 C 208.257,656.474 209.902,658.678 209.294,661.143 C 211.38,664.196 215.407,665.024 218.976,666.255 C 220.115,664.75 218.211,662.824 219.35,661.321 C 215.991,659.25 213.246,660.53 210.338,661.807 C 211.387,664.212 211.608,666.54 213.191,668.444 C 217.374,670.804 220.585,670.874 224.865,671.37 C 225.556,669.44 226.485,666.393 225.047,665.108 C 221.9,664.264 217.656,662.112 215.176,662.464 C 213.405,665.133 214.949,668.715 215.756,670.242 C 217.093,670.469 218.919,671.863 220.216,671.091 L 216.32,666.638 Z" stroke="#000000" fill="#ffffff" marker-start="none" marker-end="none"/>
     <path d="M 192.983,602.972 L 191.183,606.972 C 190.021,605.078 191.744,603.422 191.183,600.572 C 191.718,600.064 195.422,599.205 195.883,598.472 C 191.43,598.156 191.105,599.73 188.783,601.172 C 185.698,607.171 184.375,614.32 182.783,621.572 C 201.097,622.641 192.829,603.163 183.683,606.872 C 182.422,612.351 184.354,618.957 190.583,618.572 C 190.583,616.972 190.583,615.372 190.583,613.772 C 188.109,613.508 187.616,614.073 185.783,614.972 C 185.554,620.52 183.333,631.133 187.883,633.572 L 191.183,630.572 L 193.823,635.912 C 198.409,636.56 197.347,637.23 200.283,640.372 C 198.289,641.427 196.714,639.171 194.183,638.972 C 191.943,636.031 192.426,631.947 192.383,628.172 C 194.169,627.565 195.397,629.979 197.183,629.372 C 198.09,633.212 196.011,635.415 193.883,637.772 C 191.93,636.018 189.79,635.075 188.483,632.972 C 187.56,628.26 188.506,625.19 189.383,620.972 C 191.433,620.924 194.616,621.002 195.383,622.772 C 195.192,626.025 195.899,630.731 194.783,632.972 C 191.692,633.812 188.778,631.22 187.583,629.972 C 187.789,628.632 187.042,626.46 188.183,625.472 L 191.183,630.572 Z" stroke="#000000" fill="#ffffff" marker-start="none" marker-end="none"/>
     <path d="M 187.897,620.008 L 188.323,624.375 C 186.373,623.309 187.045,621.015 185.142,618.821 C 185.353,618.114 188.14,615.527 188.176,614.662 C 184.155,616.602 184.655,618.129 183.357,620.534 C 183.662,627.273 186.069,634.134 188.291,641.218 C 204.714,633.042 187.857,620.251 181.766,628.015 C 183.395,633.396 188.356,638.168 193.568,634.738 C 192.773,633.349 191.978,631.961 191.183,630.572 C 188.905,631.573 188.757,632.309 187.614,634 C 190.173,638.928 193.522,649.241 198.682,649.095 L 200.054,644.852 L 205,648.172 C 209.301,646.455 208.713,647.564 212.822,648.832 C 211.616,650.738 209.129,649.563 206.833,650.648 C 203.427,649.21 201.817,645.427 199.902,642.173 C 201.151,640.758 203.416,642.242 204.664,640.828 C 207.36,643.709 206.651,646.653 205.976,649.756 C 203.41,649.206 201.084,649.451 198.905,648.277 C 195.761,644.646 195.056,641.513 193.72,637.416 C 195.475,636.356 198.276,634.841 199.821,635.995 C 201.273,638.913 204.225,642.645 204.371,645.145 C 202.107,647.41 198.29,646.609 196.633,646.121 C 196.145,644.855 194.417,643.342 194.916,641.917 L 200.054,644.852 Z" stroke="#000000" fill="#ffffff" marker-start="none" marker-end="none"/>
     <path d="M 267.266,602.832 L 269.066,606.832 C 270.228,604.938 268.505,603.282 269.066,600.432 C 268.531,599.924 264.827,599.065 264.366,598.332 C 268.819,598.016 269.144,599.59 271.466,601.032 C 274.551,607.031 275.874,614.18 277.466,621.432 C 259.152,622.501 267.42,603.023 276.566,606.732 C 277.827,612.211 275.895,618.817 269.666,618.432 C 269.666,616.832 269.666,615.232 269.666,613.632 C 272.14,613.368 272.633,613.933 274.466,614.832 C 274.695,620.38 276.916,630.993 272.366,633.432 L 269.066,630.432 L 266.426,635.772 C 261.84,636.42 262.902,637.09 259.966,640.232 C 261.96,641.287 263.535,639.031 266.066,638.832 C 268.306,635.891 267.823,631.807 267.866,628.032 C 266.08,627.425 264.852,629.839 263.066,629.232 C 262.159,633.072 264.238,635.275 266.366,637.632 C 268.319,635.878 270.459,634.935 271.766,632.832 C 272.689,628.12 271.743,625.05 270.866,620.832 C 268.816,620.784 265.633,620.862 264.866,622.632 C 265.057,625.885 264.35,630.591 265.466,632.832 C 268.557,633.672 271.471,631.08 272.666,629.832 C 272.46,628.492 273.207,626.32 272.066,625.332 L 269.066,630.432 Z" stroke="#000000" fill="#ffffff" marker-start="none" marker-end="none"/>
     <path d="M 272.352,619.868 L 271.926,624.235 C 273.876,623.169 273.204,620.875 275.107,618.681 C 274.896,617.974 272.109,615.387 272.073,614.522 C 276.094,616.462 275.594,617.989 276.892,620.394 C 276.587,627.133 274.18,633.994 271.958,641.078 C 255.535,632.902 272.392,620.111 278.483,627.875 C 276.854,633.256 271.893,638.028 266.681,634.598 C 267.476,633.209 268.271,631.821 269.066,630.432 C 271.344,631.433 271.492,632.169 272.635,633.86 C 270.076,638.788 266.727,649.101 261.567,648.955 L 260.195,644.712 L 255.249,648.032 C 250.948,646.315 251.536,647.424 247.427,648.692 C 248.633,650.598 251.12,649.423 253.416,650.508 C 256.822,649.07 258.432,645.287 260.347,642.033 C 259.098,640.618 256.833,642.102 255.585,640.688 C 252.889,643.569 253.598,646.513 254.273,649.616 C 256.839,649.066 259.165,649.311 261.344,648.137 C 264.488,644.506 265.193,641.373 266.529,637.276 C 264.774,636.216 261.973,634.701 260.428,635.855 C 258.976,638.773 256.024,642.505 255.878,645.005 C 258.142,647.27 261.959,646.469 263.616,645.981 C 264.104,644.715 265.832,643.202 265.333,641.777 L 260.195,644.712 Z" stroke="#000000" fill="#ffffff" marker-start="none" marker-end="none"/>
     <path d="M 248.893,648.698 L 245.33,651.256 C 247.417,652.019 248.698,650.001 251.602,649.985 C 251.994,649.36 252.1,645.56 252.728,644.962 C 253.921,649.264 252.443,649.895 251.49,652.457 C 246.223,656.671 239.478,659.386 232.687,662.386 C 228.004,644.648 248.736,648.886 246.916,658.586 C 241.796,660.91 234.938,660.327 234.079,654.146 C 235.648,653.829 237.215,653.511 238.784,653.193 C 239.534,655.566 239.077,656.161 238.56,658.136 C 233.168,659.461 223.207,663.744 219.914,659.769 L 222.199,655.939 L 216.441,654.412 C 214.896,650.045 214.45,651.219 210.788,648.965 C 210.149,651.128 212.673,652.225 213.371,654.666 C 216.698,656.278 220.604,654.994 224.313,654.287 C 224.554,652.416 221.943,651.691 222.184,649.82 C 218.241,649.694 216.494,652.168 214.607,654.722 C 216.713,656.288 218.062,658.199 220.382,659.062 C 225.184,659.031 228.005,657.495 231.965,655.798 C 231.606,653.78 230.897,650.675 229.01,650.275 C 225.86,651.108 221.107,651.348 219.132,652.887 C 218.922,656.083 222.041,658.425 223.502,659.349 C 224.773,658.881 227.051,659.182 227.793,657.868 L 222.199,655.939 Z" stroke="#000000" fill="#ffffff" marker-start="none" marker-end="none"/>
     <path d="M 233.204,657.064 L 228.841,657.513 C 230.272,659.213 232.387,658.099 234.915,659.528 C 235.566,659.181 237.548,655.936 238.389,655.729 C 237.286,660.055 235.69,659.867 233.59,661.617 C 226.925,662.656 219.723,661.658 212.339,660.887 C 217.093,643.168 232.974,657.151 226.574,664.662 C 220.977,664.133 215.315,660.217 217.642,654.429 C 219.162,654.931 220.68,655.435 222.199,655.939 C 221.67,658.37 220.978,658.662 219.547,660.117 C 214.21,658.587 203.437,657.352 202.556,652.265 L 206.442,650.079 L 202.207,645.89 C 203.037,641.334 202.066,642.13 200.008,638.354 C 198.379,639.915 200.024,642.119 199.416,644.584 C 201.502,647.637 205.529,648.465 209.098,649.696 C 210.237,648.191 208.333,646.265 209.472,644.762 C 206.113,642.691 203.368,643.971 200.46,645.248 C 201.509,647.653 201.73,649.981 203.313,651.885 C 207.496,654.245 210.707,654.315 214.987,654.811 C 215.678,652.881 216.607,649.834 215.169,648.549 C 212.022,647.705 207.778,645.553 205.298,645.905 C 203.527,648.574 205.071,652.156 205.878,653.683 C 207.215,653.91 209.041,655.304 210.338,654.532 L 206.442,650.079 Z" stroke="#000000" fill="#ffffff" marker-start="none" marker-end="none"/>
     <path d="M 190.652,629.362 L 188.852,633.362 C 187.69,631.468 189.413,629.812 188.852,626.962 C 189.387,626.454 193.091,625.595 193.552,624.862 C 189.099,624.546 188.774,626.12 186.452,627.562 C 183.367,633.561 182.044,640.71 180.452,647.962 C 198.766,649.031 190.498,629.553 181.352,633.262 C 180.091,638.741 182.023,645.347 188.252,644.962 C 188.252,643.362 188.252,641.762 188.252,640.162 C 185.778,639.898 185.285,640.463 183.452,641.362 C 183.223,646.91 181.002,657.523 185.552,659.962 L 188.852,656.962 L 191.492,662.302 C 196.078,662.95 195.016,663.62 197.952,666.762 C 195.958,667.817 194.383,665.561 191.852,665.362 C 189.612,662.421 190.095,658.337 190.052,654.562 C 191.838,653.955 193.066,656.369 194.852,655.762 C 195.759,659.602 193.68,661.805 191.552,664.162 C 189.599,662.408 187.459,661.465 186.152,659.362 C 185.229,654.65 186.175,651.58 187.052,647.362 C 189.102,647.314 192.285,647.392 193.052,649.162 C 192.861,652.415 193.568,657.121 192.452,659.362 C 189.361,660.202 186.447,657.61 185.252,656.362 C 185.458,655.022 184.711,652.85 185.852,651.862 L 188.852,656.962 Z" stroke="#000000" fill="#ffffff" marker-start="none" marker-end="none"/>
     <path d="M 185.566,646.398 L 185.992,650.765 C 184.042,649.699 184.714,647.405 182.811,645.211 C 183.022,644.504 185.809,641.917 185.845,641.052 C 181.824,642.992 182.324,644.519 181.026,646.924 C 181.331,653.663 183.738,660.524 185.96,667.608 C 202.383,659.432 185.526,646.641 179.435,654.405 C 181.064,659.786 186.025,664.558 191.237,661.128 C 190.442,659.739 189.647,658.351 188.852,656.962 C 186.574,657.963 186.426,658.699 185.283,660.39 C 187.842,665.318 191.191,675.631 196.351,675.485 L 197.723,671.242 L 202.669,674.562 C 206.97,672.845 206.382,673.954 210.491,675.222 C 209.285,677.128 206.798,675.953 204.502,677.038 C 201.096,675.6 199.486,671.817 197.571,668.563 C 198.82,667.148 201.085,668.632 202.333,667.218 C 205.029,670.099 204.32,673.043 203.645,676.146 C 201.079,675.596 198.753,675.841 196.574,674.667 C 193.43,671.036 192.725,667.903 191.389,663.806 C 193.144,662.746 195.945,661.231 197.49,662.385 C 198.942,665.303 201.894,669.035 202.04,671.535 C 199.776,673.8 195.959,672.999 194.302,672.511 C 193.814,671.245 192.086,669.732 192.585,668.307 L 197.723,671.242 Z" stroke="#000000" fill="#ffffff" marker-start="none" marker-end="none"/>
     <path d="M 264.935,629.222 L 266.735,633.222 C 267.897,631.328 266.174,629.672 266.735,626.822 C 266.2,626.314 262.496,625.455 262.035,624.722 C 266.488,624.406 266.813,625.98 269.135,627.422 C 272.22,633.421 273.543,640.57 275.135,647.822 C 256.821,648.891 265.089,629.413 274.235,633.122 C 275.496,638.601 273.564,645.207 267.335,644.822 C 267.335,643.222 267.335,641.622 267.335,640.022 C 269.809,639.758 270.302,640.323 272.135,641.222 C 272.364,646.77 274.585,657.383 270.035,659.822 L 266.735,656.822 L 264.095,662.162 C 259.509,662.81 260.571,663.48 257.635,666.622 C 259.629,667.677 261.204,665.421 263.735,665.222 C 265.975,662.281 265.492,658.197 265.535,654.422 C 263.749,653.815 262.521,656.229 260.735,655.622 C 259.828,659.462 261.907,661.665 264.035,664.022 C 265.988,662.268 268.128,661.325 269.435,659.222 C 270.358,654.51 269.412,651.44 268.535,647.222 C 266.485,647.174 263.302,647.252 262.535,649.022 C 262.726,652.275 262.019,656.981 263.135,659.222 C 266.226,660.062 269.14,657.47 270.335,656.222 C 270.129,654.882 270.876,652.71 269.735,651.722 L 266.735,656.822 Z" stroke="#000000" fill="#ffffff" marker-start="none" marker-end="none"/>
     <path d="M 270.021,646.258 L 269.595,650.625 C 271.545,649.559 270.873,647.265 272.776,645.071 C 272.565,644.364 269.778,641.777 269.742,640.912 C 273.763,642.852 273.263,644.379 274.561,646.784 C 274.256,653.523 271.849,660.384 269.627,667.468 C 253.204,659.292 270.061,646.501 276.152,654.265 C 274.523,659.646 269.562,664.418 264.35,660.988 C 265.145,659.599 265.94,658.211 266.735,656.822 C 269.013,657.823 269.161,658.559 270.304,660.25 C 267.745,665.178 264.396,675.491 259.236,675.345 L 257.864,671.102 L 252.918,674.422 C 248.617,672.705 249.205,673.814 245.096,675.082 C 246.302,676.988 248.789,675.813 251.085,676.898 C 254.491,675.46 256.101,671.677 258.016,668.423 C 256.767,667.008 254.502,668.492 253.254,667.078 C 250.558,669.959 251.267,672.903 251.942,676.006 C 254.508,675.456 256.834,675.701 259.013,674.527 C 262.157,670.896 262.862,667.763 264.198,663.666 C 262.443,662.606 259.642,661.091 258.097,662.245 C 256.645,665.163 253.693,668.895 253.547,671.395 C 255.811,673.66 259.628,672.859 261.285,672.371 C 261.773,671.105 263.501,669.592 263.002,668.167 L 257.864,671.102 Z" stroke="#000000" fill="#ffffff" marker-start="none" marker-end="none"/>
     <path d="M 246.562,675.088 L 242.999,677.646 C 245.086,678.409 246.367,676.391 249.271,676.375 C 249.663,675.75 249.769,671.95 250.397,671.352 C 251.59,675.654 250.112,676.285 249.159,678.847 C 243.892,683.061 237.147,685.776 230.356,688.776 C 225.673,671.038 246.405,675.276 244.585,684.976 C 239.465,687.3 232.607,686.717 231.748,680.536 C 233.317,680.219 234.884,679.901 236.453,679.583 C 237.203,681.956 236.746,682.551 236.229,684.526 C 230.837,685.851 220.876,690.134 217.583,686.159 L 219.868,682.329 L 214.11,680.802 C 212.565,676.435 212.119,677.609 208.457,675.355 C 207.818,677.518 210.342,678.615 211.04,681.056 C 214.367,682.668 218.273,681.384 221.982,680.677 C 222.223,678.806 219.612,678.081 219.853,676.21 C 215.91,676.084 214.163,678.558 212.276,681.112 C 214.382,682.678 215.731,684.589 218.051,685.452 C 222.853,685.421 225.674,683.885 229.634,682.188 C 229.275,680.17 228.566,677.065 226.679,676.665 C 223.529,677.498 218.776,677.738 216.801,679.277 C 216.591,682.473 219.71,684.815 221.171,685.739 C 222.442,685.271 224.72,685.572 225.462,684.258 L 219.868,682.329 Z" stroke="#000000" fill="#ffffff" marker-start="none" marker-end="none"/>
     <path d="M 230.873,683.454 L 226.51,683.903 C 227.941,685.603 230.056,684.489 232.584,685.918 C 233.235,685.571 235.217,682.326 236.058,682.119 C 234.955,686.445 233.359,686.257 231.259,688.007 C 224.594,689.046 217.392,688.048 210.008,687.277 C 214.762,669.558 230.643,683.541 224.243,691.052 C 218.646,690.523 212.984,686.607 215.311,680.819 C 216.831,681.321 218.349,681.825 219.868,682.329 C 219.339,684.76 218.647,685.052 217.216,686.507 C 211.879,684.977 201.106,683.742 200.225,678.655 L 204.111,676.469 L 199.876,672.28 C 200.706,667.724 199.735,668.52 197.677,664.744 C 196.048,666.305 197.693,668.509 197.085,670.974 C 199.171,674.027 203.198,674.855 206.767,676.086 C 207.906,674.581 206.002,672.655 207.141,671.152 C 203.782,669.081 201.037,670.361 198.129,671.638 C 199.178,674.043 199.399,676.371 200.982,678.275 C 205.165,680.635 208.376,680.705 212.656,681.201 C 213.347,679.271 214.276,676.224 212.838,674.939 C 209.691,674.095 205.447,671.943 202.967,672.295 C 201.196,674.964 202.74,678.546 203.547,680.073 C 204.884,680.3 206.71,681.694 208.007,680.922 L 204.111,676.469 Z" stroke="#000000" fill="#ffffff" marker-start="none" marker-end="none"/>
     <path d="M 202.66,631.928 L 200.86,635.928 C 199.698,634.034 201.421,632.378 200.86,629.528 C 201.395,629.02 205.099,628.161 205.56,627.428 C 201.107,627.112 200.782,628.686 198.46,630.128 C 195.375,636.127 194.052,643.276 192.46,650.528 C 210.774,651.597 202.506,632.119 193.36,635.828 C 192.099,641.307 194.031,647.913 200.26,647.528 C 200.26,645.928 200.26,644.328 200.26,642.728 C 197.786,642.464 197.293,643.029 195.46,643.928 C 195.231,649.476 193.01,660.089 197.56,662.528 L 200.86,659.528 L 203.5,664.868 C 208.086,665.516 207.024,666.186 209.96,669.328 C 207.966,670.383 206.391,668.127 203.86,667.928 C 201.62,664.987 202.103,660.903 202.06,657.128 C 203.846,656.521 205.074,658.935 206.86,658.328 C 207.767,662.168 205.688,664.371 203.56,666.728 C 201.607,664.974 199.467,664.031 198.16,661.928 C 197.237,657.216 198.183,654.146 199.06,649.928 C 201.11,649.88 204.293,649.958 205.06,651.728 C 204.869,654.981 205.576,659.687 204.46,661.928 C 201.369,662.768 198.455,660.176 197.26,658.928 C 197.466,657.588 196.719,655.416 197.86,654.428 L 200.86,659.528 Z" stroke="#000000" fill="#ffffff" marker-start="none" marker-end="none"/>
     <path d="M 197.574,648.964 L 198,653.331 C 196.05,652.265 196.722,649.971 194.819,647.777 C 195.03,647.07 197.817,644.483 197.853,643.618 C 193.832,645.558 194.332,647.085 193.034,649.49 C 193.339,656.229 195.746,663.09 197.968,670.174 C 214.391,661.998 197.534,649.207 191.443,656.971 C 193.072,662.352 198.033,667.124 203.245,663.694 C 202.45,662.305 201.655,660.917 200.86,659.528 C 198.582,660.529 198.434,661.265 197.291,662.956 C 199.85,667.884 203.199,678.197 208.359,678.051 L 209.731,673.808 L 214.677,677.128 C 218.978,675.411 218.39,676.52 222.499,677.788 C 221.293,679.694 218.806,678.519 216.51,679.604 C 213.104,678.166 211.494,674.383 209.579,671.129 C 210.828,669.714 213.093,671.198 214.341,669.784 C 217.037,672.665 216.328,675.609 215.653,678.712 C 213.087,678.162 210.761,678.407 208.582,677.233 C 205.438,673.602 204.733,670.469 203.397,666.372 C 205.152,665.312 207.953,663.797 209.498,664.951 C 210.95,667.869 213.902,671.601 214.048,674.101 C 211.784,676.366 207.967,675.565 206.31,675.077 C 205.822,673.811 204.094,672.298 204.593,670.873 L 209.731,673.808 Z" stroke="#000000" fill="#ffffff" marker-start="none" marker-end="none"/>
     <path d="M 276.943,631.788 L 278.743,635.788 C 279.905,633.894 278.182,632.238 278.743,629.388 C 278.208,628.88 274.504,628.021 274.043,627.288 C 278.496,626.972 278.821,628.546 281.143,629.988 C 284.228,635.987 285.551,643.136 287.143,650.388 C 268.829,651.457 277.097,631.979 286.243,635.688 C 287.504,641.167 285.572,647.773 279.343,647.388 C 279.343,645.788 279.343,644.188 279.343,642.588 C 281.817,642.324 282.31,642.889 284.143,643.788 C 284.372,649.336 286.593,659.949 282.043,662.388 L 278.743,659.388 L 276.103,664.728 C 271.517,665.376 272.579,666.046 269.643,669.188 C 271.637,670.243 273.212,667.987 275.743,667.788 C 277.983,664.847 277.5,660.763 277.543,656.988 C 275.757,656.381 274.529,658.795 272.743,658.188 C 271.836,662.028 273.915,664.231 276.043,666.588 C 277.996,664.834 280.136,663.891 281.443,661.788 C 282.366,657.076 281.42,654.006 280.543,649.788 C 278.493,649.74 275.31,649.818 274.543,651.588 C 274.734,654.841 274.027,659.547 275.143,661.788 C 278.234,662.628 281.148,660.036 282.343,658.788 C 282.137,657.448 282.884,655.276 281.743,654.288 L 278.743,659.388 Z" stroke="#000000" fill="#ffffff" marker-start="none" marker-end="none"/>
     <path d="M 282.029,648.824 L 281.603,653.191 C 283.553,652.125 282.881,649.831 284.784,647.637 C 284.573,646.93 281.786,644.343 281.75,643.478 C 285.771,645.418 285.271,646.945 286.569,649.35 C 286.264,656.089 283.857,662.95 281.635,670.034 C 265.212,661.858 282.069,649.067 288.16,656.831 C 286.531,662.212 281.57,666.984 276.358,663.554 C 277.153,662.165 277.948,660.777 278.743,659.388 C 281.021,660.389 281.169,661.125 282.312,662.816 C 279.753,667.744 276.404,678.057 271.244,677.911 L 269.872,673.668 L 264.926,676.988 C 260.625,675.271 261.213,676.38 257.104,677.648 C 258.31,679.554 260.797,678.379 263.093,679.464 C 266.499,678.026 268.109,674.243 270.024,670.989 C 268.775,669.574 266.51,671.058 265.262,669.644 C 262.566,672.525 263.275,675.469 263.95,678.572 C 266.516,678.022 268.842,678.267 271.021,677.093 C 274.165,673.462 274.87,670.329 276.206,666.232 C 274.451,665.172 271.65,663.657 270.105,664.811 C 268.653,667.729 265.701,671.461 265.555,673.961 C 267.819,676.226 271.636,675.425 273.293,674.937 C 273.781,673.671 275.509,672.158 275.01,670.733 L 269.872,673.668 Z" stroke="#000000" fill="#ffffff" marker-start="none" marker-end="none"/>
     <path d="M 258.57,677.654 L 255.007,680.212 C 257.094,680.975 258.375,678.957 261.279,678.941 C 261.671,678.316 261.777,674.516 262.405,673.918 C 263.598,678.22 262.12,678.851 261.167,681.413 C 255.9,685.627 249.155,688.342 242.364,691.342 C 237.681,673.604 258.413,677.842 256.593,687.542 C 251.473,689.866 244.615,689.283 243.756,683.102 C 245.325,682.785 246.892,682.467 248.461,682.149 C 249.211,684.522 248.754,685.117 248.237,687.092 C 242.845,688.417 232.884,692.7 229.591,688.725 L 231.876,684.895 L 226.118,683.368 C 224.573,679.001 224.127,680.175 220.465,677.921 C 219.826,680.084 222.35,681.181 223.048,683.622 C 226.375,685.234 230.281,683.95 233.99,683.243 C 234.231,681.372 231.62,680.647 231.861,678.776 C 227.918,678.65 226.171,681.124 224.284,683.678 C 226.39,685.244 227.739,687.155 230.059,688.018 C 234.861,687.987 237.682,686.451 241.642,684.754 C 241.283,682.736 240.574,679.631 238.687,679.231 C 235.537,680.064 230.784,680.304 228.809,681.843 C 228.599,685.039 231.718,687.381 233.179,688.305 C 234.45,687.837 236.728,688.138 237.47,686.824 L 231.876,684.895 Z" stroke="#000000" fill="#ffffff" marker-start="none" marker-end="none"/>
     <path d="M 242.881,686.02 L 238.518,686.469 C 239.949,688.169 242.064,687.055 244.592,688.484 C 245.243,688.137 247.225,684.892 248.066,684.685 C 246.963,689.011 245.367,688.823 243.267,690.573 C 236.602,691.612 229.4,690.614 222.016,689.843 C 226.77,672.124 242.651,686.107 236.251,693.618 C 230.654,693.089 224.992,689.173 227.319,683.385 C 228.839,683.887 230.357,684.391 231.876,684.895 C 231.347,687.326 230.655,687.618 229.224,689.073 C 223.887,687.543 213.114,686.308 212.233,681.221 L 216.119,679.035 L 211.884,674.846 C 212.714,670.29 211.743,671.086 209.685,667.31 C 208.056,668.871 209.701,671.075 209.093,673.54 C 211.179,676.593 215.206,677.421 218.775,678.652 C 219.914,677.147 218.01,675.221 219.149,673.718 C 215.79,671.647 213.045,672.927 210.137,674.204 C 211.186,676.609 211.407,678.937 212.99,680.841 C 217.173,683.201 220.384,683.271 224.664,683.767 C 225.355,681.837 226.284,678.79 224.846,677.505 C 221.699,676.661 217.455,674.509 214.975,674.861 C 213.204,677.53 214.748,681.112 215.555,682.639 C 216.892,682.866 218.718,684.26 220.015,683.488 L 216.119,679.035 Z" stroke="#000000" fill="#ffffff" marker-start="none" marker-end="none"/>
     <path d="M 181.991,624.381 L 180.191,628.381 C 179.029,626.487 180.752,624.831 180.191,621.981 C 180.726,621.473 184.43,620.614 184.891,619.881 C 180.438,619.565 180.113,621.139 177.791,622.581 C 174.706,628.58 173.383,635.729 171.791,642.981 C 190.105,644.05 181.837,624.572 172.691,628.281 C 171.43,633.76 173.362,640.366 179.591,639.981 C 179.591,638.381 179.591,636.781 179.591,635.181 C 177.117,634.917 176.624,635.482 174.791,636.381 C 174.562,641.929 172.341,652.542 176.891,654.981 L 180.191,651.981 L 182.831,657.321 C 187.417,657.969 186.355,658.639 189.291,661.781 C 187.297,662.836 185.722,660.58 183.191,660.381 C 180.951,657.44 181.434,653.356 181.391,649.581 C 183.177,648.974 184.405,651.388 186.191,650.781 C 187.098,654.621 185.019,656.824 182.891,659.181 C 180.938,657.427 178.798,656.484 177.491,654.381 C 176.568,649.669 177.514,646.599 178.391,642.381 C 180.441,642.333 183.624,642.411 184.391,644.181 C 184.2,647.434 184.907,652.14 183.791,654.381 C 180.7,655.221 177.786,652.629 176.591,651.381 C 176.797,650.041 176.05,647.869 177.191,646.881 L 180.191,651.981 Z" stroke="#000000" fill="#ffffff" marker-start="none" marker-end="none"/>
     <path d="M 176.905,641.417 L 177.331,645.784 C 175.381,644.718 176.053,642.424 174.15,640.23 C 174.361,639.523 177.148,636.936 177.184,636.071 C 173.163,638.011 173.663,639.538 172.365,641.943 C 172.67,648.682 175.077,655.543 177.299,662.627 C 193.722,654.451 176.865,641.66 170.774,649.424 C 172.403,654.805 177.364,659.577 182.576,656.147 C 181.781,654.758 180.986,653.37 180.191,651.981 C 177.913,652.982 177.765,653.718 176.622,655.409 C 179.181,660.337 182.53,670.65 187.69,670.504 L 189.062,666.261 L 194.008,669.581 C 198.309,667.864 197.721,668.973 201.83,670.241 C 200.624,672.147 198.137,670.972 195.841,672.057 C 192.435,670.619 190.825,666.836 188.91,663.582 C 190.159,662.167 192.424,663.651 193.672,662.237 C 196.368,665.118 195.659,668.062 194.984,671.165 C 192.418,670.615 190.092,670.86 187.913,669.686 C 184.769,666.055 184.064,662.922 182.728,658.825 C 184.483,657.765 187.284,656.25 188.829,657.404 C 190.281,660.322 193.233,664.054 193.379,666.554 C 191.115,668.819 187.298,668.018 185.641,667.53 C 185.153,666.264 183.425,664.751 183.924,663.326 L 189.062,666.261 Z" stroke="#000000" fill="#ffffff" marker-start="none" marker-end="none"/>
     <path d="M 256.274,624.241 L 258.074,628.241 C 259.236,626.347 257.513,624.691 258.074,621.841 C 257.539,621.333 253.835,620.474 253.374,619.741 C 257.827,619.425 258.152,620.999 260.474,622.441 C 263.559,628.44 264.882,635.589 266.474,642.841 C 248.16,643.91 256.428,624.432 265.574,628.141 C 266.835,633.62 264.903,640.226 258.674,639.841 C 258.674,638.241 258.674,636.641 258.674,635.041 C 261.148,634.777 261.641,635.342 263.474,636.241 C 263.703,641.789 265.924,652.402 261.374,654.841 L 258.074,651.841 L 255.434,657.181 C 250.848,657.829 251.91,658.499 248.974,661.641 C 250.968,662.696 252.543,660.44 255.074,660.241 C 257.314,657.3 256.831,653.216 256.874,649.441 C 255.088,648.834 253.86,651.248 252.074,650.641 C 251.167,654.481 253.246,656.684 255.374,659.041 C 257.327,657.287 259.467,656.344 260.774,654.241 C 261.697,649.529 260.751,646.459 259.874,642.241 C 257.824,642.193 254.641,642.271 253.874,644.041 C 254.065,647.294 253.358,652 254.474,654.241 C 257.565,655.081 260.479,652.489 261.674,651.241 C 261.468,649.901 262.215,647.729 261.074,646.741 L 258.074,651.841 Z" stroke="#000000" fill="#ffffff" marker-start="none" marker-end="none"/>
     <path d="M 261.36,641.277 L 260.934,645.644 C 262.884,644.578 262.212,642.284 264.115,640.09 C 263.904,639.383 261.117,636.796 261.081,635.931 C 265.102,637.871 264.602,639.398 265.9,641.803 C 265.595,648.542 263.188,655.403 260.966,662.487 C 244.543,654.311 261.4,641.52 267.491,649.284 C 265.862,654.665 260.901,659.437 255.689,656.007 C 256.484,654.618 257.279,653.23 258.074,651.841 C 260.352,652.842 260.5,653.578 261.643,655.269 C 259.084,660.197 255.735,670.51 250.575,670.364 L 249.203,666.121 L 244.257,669.441 C 239.956,667.724 240.544,668.833 236.435,670.101 C 237.641,672.007 240.128,670.832 242.424,671.917 C 245.83,670.479 247.44,666.696 249.355,663.442 C 248.106,662.027 245.841,663.511 244.593,662.097 C 241.897,664.978 242.606,667.922 243.281,671.025 C 245.847,670.475 248.173,670.72 250.352,669.546 C 253.496,665.915 254.201,662.782 255.537,658.685 C 253.782,657.625 250.981,656.11 249.436,657.264 C 247.984,660.182 245.032,663.914 244.886,666.414 C 247.15,668.679 250.967,667.878 252.624,667.39 C 253.112,666.124 254.84,664.611 254.341,663.186 L 249.203,666.121 Z" stroke="#000000" fill="#ffffff" marker-start="none" marker-end="none"/>
     <path d="M 237.901,670.107 L 234.338,672.665 C 236.425,673.428 237.706,671.41 240.61,671.394 C 241.002,670.769 241.108,666.969 241.736,666.371 C 242.929,670.673 241.451,671.304 240.498,673.866 C 235.231,678.08 228.486,680.795 221.695,683.795 C 217.012,666.057 237.744,670.295 235.924,679.995 C 230.804,682.319 223.946,681.736 223.087,675.555 C 224.656,675.238 226.223,674.92 227.792,674.602 C 228.542,676.975 228.085,677.57 227.568,679.545 C 222.176,680.87 212.215,685.153 208.922,681.178 L 211.207,677.348 L 205.449,675.821 C 203.904,671.454 203.458,672.628 199.796,670.374 C 199.157,672.537 201.681,673.634 202.379,676.075 C 205.706,677.687 209.612,676.403 213.321,675.696 C 213.562,673.825 210.951,673.1 211.192,671.229 C 207.249,671.103 205.502,673.577 203.615,676.131 C 205.721,677.697 207.07,679.608 209.39,680.471 C 214.192,680.44 217.013,678.904 220.973,677.207 C 220.614,675.189 219.905,672.084 218.018,671.684 C 214.868,672.517 210.115,672.757 208.14,674.296 C 207.93,677.492 211.049,679.834 212.51,680.758 C 213.781,680.29 216.059,680.591 216.801,679.277 L 211.207,677.348 Z" stroke="#000000" fill="#ffffff" marker-start="none" marker-end="none"/>
     <path d="M 222.212,678.473 L 217.849,678.922 C 219.28,680.622 221.395,679.508 223.923,680.937 C 224.574,680.59 226.556,677.345 227.397,677.138 C 226.294,681.464 224.698,681.276 222.598,683.026 C 215.933,684.065 208.731,683.067 201.347,682.296 C 206.101,664.577 221.982,678.56 215.582,686.071 C 209.985,685.542 204.323,681.626 206.65,675.838 C 208.17,676.34 209.688,676.844 211.207,677.348 C 210.678,679.779 209.986,680.071 208.555,681.526 C 203.218,679.996 192.445,678.761 191.564,673.674 L 195.45,671.488 L 191.215,667.299 C 192.045,662.743 191.074,663.539 189.016,659.763 C 187.387,661.324 189.032,663.528 188.424,665.993 C 190.51,669.046 194.537,669.874 198.106,671.105 C 199.245,669.6 197.341,667.674 198.48,666.171 C 195.121,664.1 192.376,665.38 189.468,666.657 C 190.517,669.062 190.738,671.39 192.321,673.294 C 196.504,675.654 199.715,675.724 203.995,676.22 C 204.686,674.29 205.615,671.243 204.177,669.958 C 201.03,669.114 196.786,666.962 194.306,667.314 C 192.535,669.983 194.079,673.565 194.886,675.092 C 196.223,675.319 198.049,676.713 199.346,675.941 L 195.45,671.488 Z" stroke="#000000" fill="#ffffff" marker-start="none" marker-end="none"/>
     <path d="M 184.957,609.588 L 182.381,613.138 C 181.629,611.047 183.652,609.776 183.683,606.872 C 184.31,606.483 188.111,606.395 188.711,605.771 C 184.416,604.556 183.777,606.032 181.211,606.971 C 176.971,612.218 174.222,618.949 171.189,625.725 C 188.903,630.495 184.767,609.743 175.058,611.515 C 172.71,616.624 173.258,623.484 179.436,624.374 C 179.761,622.807 180.086,621.241 180.411,619.674 C 178.043,618.913 177.445,619.366 175.468,619.873 C 174.116,625.259 169.783,635.199 173.742,638.512 L 177.583,636.245 L 179.083,642.01 C 183.441,643.577 182.265,644.017 184.501,647.691 C 182.334,648.318 181.251,645.789 178.813,645.08 C 177.218,641.745 178.521,637.844 179.246,634.139 C 181.118,633.908 181.83,636.521 183.702,636.29 C 183.809,640.234 181.326,641.969 178.763,643.844 C 177.208,641.729 175.304,640.371 174.452,638.046 C 174.506,633.245 176.057,630.431 177.773,626.48 C 179.79,626.85 182.89,627.573 183.281,629.462 C 182.433,632.608 182.169,637.36 180.62,639.327 C 177.423,639.521 175.097,636.391 174.181,634.926 C 174.655,633.656 174.365,631.377 175.683,630.642 L 177.583,636.245 Z" stroke="#000000" fill="#ffffff" marker-start="none" marker-end="none"/>
    </g>
   </g>
  </g>
 </g>
</svg>
